<svg width="98" height="98" viewBox="0 0 98 98" fill="none" xmlns="http://www.w3.org/2000/svg">
<rect width="98" height="98" rx="22" fill="#F0F0F3"/>
<path d="M49 53.0833C52.2489 53.0833 55.3647 51.7927 57.6621 49.4954C59.9594 47.1981 61.25 44.0822 61.25 40.8333C61.25 37.5844 59.9594 34.4686 57.6621 32.1713C55.3647 29.874 52.2489 28.5833 49 28.5833C45.7511 28.5833 42.6353 29.874 40.3379 32.1713C38.0406 34.4686 36.75 37.5844 36.75 40.8333C36.75 44.0822 38.0406 47.1981 40.3379 49.4954C42.6353 51.7927 45.7511 53.0833 49 53.0833Z" stroke="#8181A5" stroke-width="3" stroke-linecap="round" stroke-linejoin="round"/>
<path d="M49 12.25C78.4 12.25 85.75 19.6 85.75 49C85.75 78.4 78.4 85.75 49 85.75C19.6 85.75 12.25 78.4 12.25 49C12.25 19.6 19.6 12.25 49 12.25Z" stroke="#8181A5" stroke-width="3" stroke-linecap="round" stroke-linejoin="round"/>
<path d="M24.5 81.8708V81.6667C24.5 77.3348 26.2208 73.1804 29.2839 70.1173C32.347 67.0542 36.5015 65.3333 40.8333 65.3333H57.1667C61.4985 65.3333 65.653 67.0542 68.7161 70.1173C71.7792 73.1804 73.5 77.3348 73.5 81.6667V81.8708" stroke="#8181A5" stroke-width="3" stroke-linecap="round" stroke-linejoin="round"/>
</svg>
