<svg width="1182" height="1173" viewBox="0 0 1182 1173" fill="none" xmlns="http://www.w3.org/2000/svg">
<path d="M101.367 589.982C101.367 329.093 305.984 115.141 563.154 100.115L606.561 56.2987C601.752 56.1704 596.922 56.085 592.092 56.085C297.734 56.085 58.2388 295.6 58.2388 589.982C58.2388 843.219 235.456 1055.82 472.366 1110.33V1065.93C259.478 1012.35 101.389 819.302 101.389 589.982H101.367Z" fill="#FE5200"/>
<path d="M1125.92 589.982C1125.92 351.129 968.263 148.42 751.55 80.4297V125.87C944.07 192.215 1082.77 375.196 1082.77 590.003C1082.77 804.81 937.401 996.491 737.722 1058.69L737.871 1103.66C961.594 1040.05 1125.9 833.857 1125.9 590.003L1125.92 589.982Z" fill="#FE5200"/>
<path d="M558.987 1144.57C558.987 1147.18 558.432 1150.06 559.351 1152.33C559.607 1152.97 559.907 1153.65 560.227 1154.34L577.196 1153.97C577.453 1153.55 577.73 1153.14 578.008 1152.75C602.757 1119.39 627.506 1086.05 652.255 1052.68H558.966C558.966 1083.31 558.966 1113.94 558.966 1144.57H558.987Z" fill="black"/>
<path d="M60.3975 591.051C60.3975 298.443 298.44 60.4024 591.002 60.4024C594.785 60.4024 598.547 60.4879 602.33 60.5734L658.474 3.89005C636.333 1.34657 613.828 0 591.002 0C265.121 0 0 265.142 0 591.051C0 876.327 203.142 1115.05 472.366 1170.13V1108.32C236.717 1054.29 60.3975 842.877 60.3975 591.051Z" fill="#030142"/>
<path d="M1182 591.05C1182 320.778 999.658 92.2921 751.55 22.1646V85.2388C965.89 153.443 1121.61 354.378 1121.61 591.05C1121.61 827.723 959.243 1037.14 737.893 1101.01L738.107 1163.57C993.054 1098.02 1182 866.196 1182 591.05Z" fill="#030142"/>
<path d="M711.926 15.0044C711.883 10.922 706.989 8.84868 704.018 11.6487L325.497 369.468C321.501 373.208 319.235 378.445 319.235 383.917V761.037C319.235 765.204 324.258 767.299 327.207 764.371L714.705 381.053C715.602 380.155 716.115 378.937 716.094 377.676L711.926 15.0257V15.0044Z" fill="#FE5200"/>
<path d="M789.848 378.817L323.188 785.582C320.923 787.548 319.619 790.412 319.619 793.405V843.013C319.619 848.742 324.257 853.401 330.006 853.401H811.412V383.134C811.412 375.824 795.405 374.093 789.848 378.817Z" fill="#030142"/>
<path d="M565.526 1172.08C568.219 1172.08 570.741 1170.82 572.366 1168.68L811.369 852.816H556.85V1163.4C556.85 1168.19 560.739 1172.08 565.526 1172.08Z" fill="#020266"/>
</svg>
